<svg width="120" height="133" viewBox="0 0 120 133" fill="none" xmlns="http://www.w3.org/2000/svg">
<g clip-path="url(#clip0_2_404)">
<path d="M76.9632 78.5699C76.9632 79.4669 77.2455 80.5431 75.68 80.4663C74.1403 80.415 74.0376 80.415 74.0376 78.6468C73.9863 72.7271 73.396 66.8844 72.0872 61.1185C70.2395 52.9181 66.621 45.5378 61.5141 38.8493C58.0753 34.3647 54.5081 30.0083 51.2489 25.4212C46.1676 18.2715 43.7553 10.148 43.3447 1.43506C43.3191 0.640647 43.3191 -0.0512601 44.4226 -7.6883e-06C45.2951 0.0512447 46.2446 -0.25627 46.2703 1.23005C46.5526 11.9674 50.7613 21.116 57.4337 29.3676C61.0265 33.801 64.568 38.3368 67.6732 43.1033C73.0368 51.4062 75.5517 60.7341 76.5013 70.4977C76.6039 71.4202 76.6809 72.3684 76.7322 73.3166C76.7836 74.2135 76.8349 75.1104 76.8862 76.0073" fill="#D42528"/>
<path d="M72.0359 76.4942C72.0359 77.4423 71.9846 78.3649 72.0616 79.313C72.1129 80.2868 71.7023 80.5943 70.7784 80.5943C69.8802 80.5943 69.367 80.4406 69.3413 79.3387C69.1873 72.7527 68.5714 66.218 66.852 59.8115C65.7998 55.9163 64.6193 52.0724 61.8477 48.9972C59.1788 46.0246 56.1505 46.0502 53.5586 49.151C50.7357 52.508 49.4012 56.5826 48.2977 60.7084C46.7066 66.7562 46.0137 72.9577 45.9624 79.2105C45.9624 80.21 45.6031 80.5943 44.6279 80.5687C43.858 80.5431 43.1908 80.5687 43.2164 79.4668C43.4217 70.5489 44.5509 61.7591 47.9127 53.4049C48.9393 50.868 50.2481 48.4591 52.2498 46.5115C55.6116 43.2057 59.9487 43.2313 63.3105 46.5628C66.2104 49.4073 67.6219 53.0974 68.8024 56.8389C70.7784 63.2454 71.651 69.8313 72.0359 76.4942Z" fill="#049846"/>
<path d="M76.3986 49.6891C76.373 49.6635 76.373 49.6635 76.3986 49.6891L76.296 49.5097C76.296 49.5097 75.7057 48.3053 75.5004 47.8953L74.4739 45.7939C71.728 40.2843 68.1095 35.3384 64.1831 30.5976C63.7468 30.0594 63.3362 29.47 62.7716 28.7269C66.4671 27.8043 68.5714 25.7286 68.1865 21.9615C67.9555 19.6039 66.5184 17.887 64.2601 17.1951C61.0522 16.2213 58.6142 17.5026 56.8691 20.5521C56.5612 20.1164 56.3302 19.8346 56.1506 19.527C52.8144 13.9662 51.018 7.91838 50.556 1.4862C50.479 0.33302 50.0684 0.0511321 48.9906 0.0767583C47.8101 0.102385 47.8101 0.768666 47.8871 1.61433C48.272 7.17522 49.5808 12.5311 52.1728 17.4257C54.2258 21.2696 56.7408 24.9086 59.2814 28.4706C61.6424 31.802 64.5423 34.7746 66.8007 38.1829C68.982 41.4631 70.8041 44.9995 72.7288 48.459L74.0633 50.8935C74.166 51.0729 74.3969 51.1498 74.5766 51.0473L76.142 50.2785C76.3986 50.176 76.5013 49.9197 76.3986 49.6891ZM58.9991 22.6791C59.0248 20.7571 60.5389 19.1939 62.4123 19.2452C64.3884 19.2964 65.9538 20.8596 65.9538 22.7559C65.9281 24.6523 64.2857 26.2924 62.4123 26.2667C60.4619 26.2155 58.9991 24.6779 58.9991 22.6791Z" fill="#386BC2"/>
<path d="M86.8691 93.2795C87.254 93.1257 87.639 92.9976 88.0496 92.9976C90.6416 92.9463 93.2078 92.9463 95.7998 92.9207C96.0051 92.9207 96.9546 92.9207 97.16 92.9207C97.16 90.5631 97.16 88.308 97.16 86.0273C97.0316 86.0273 96.1591 86.0016 96.0564 86.0016C93.4645 86.0016 90.8982 85.976 88.3062 86.0016C87.562 86.0016 86.8178 86.0785 86.0992 86.2323C84.2771 86.591 82.6347 87.4111 81.4029 89.1793C80.2737 90.8193 79.7605 92.7413 79.7605 94.817C79.7091 100.275 79.7348 105.734 79.7091 111.192C79.7091 111.295 79.7348 111.397 79.7348 111.474C81.6852 111.474 83.5842 111.474 85.5346 111.474C85.5346 108.501 85.5346 106.631 85.5346 103.632C89.1274 103.632 92.6946 103.632 96.2361 103.632C96.2361 101.403 96.2361 99.2504 96.2361 97.0721C92.6689 97.0721 89.1274 97.0721 85.5603 97.0721C85.4063 95.7139 85.8682 93.6895 86.8691 93.2795Z" fill="black"/>
<path d="M44.7049 99.686C43.7553 96.6365 42.7801 93.5613 41.8306 90.5118C41.1634 88.3592 39.8546 86.9498 37.7245 86.5397C36.5954 86.3347 35.4405 86.2835 34.2857 86.3603C31.4884 86.5397 29.7434 88.0517 28.8452 90.8706C26.7151 97.559 24.4825 104.222 22.3011 110.885C22.2498 111.064 22.1984 111.243 22.1215 111.448C23.9949 111.448 25.047 111.448 26.8434 111.448C27.3824 111.448 28.0753 111.602 28.4345 111.346C28.7938 111.09 28.8452 110.372 28.9991 109.834C29.6664 107.733 30.3336 105.631 31.0008 103.504H39.3413C40.1112 105.99 40.8554 108.476 41.6253 110.987C41.7023 111.218 41.7023 111.474 42.0616 111.448C44.3199 111.423 46.0393 111.448 48.3747 111.448C48.2977 111.167 48.2464 110.962 48.1694 110.756C47.0145 107.066 45.8597 103.376 44.7049 99.686ZM37.1086 97.8921H33.3875C33.2079 97.8921 33.0539 97.7128 33.0795 97.5334C33.2848 96.3289 34.0804 92.5619 35.2352 92.5619C36.3901 92.5619 37.1856 96.3546 37.3909 97.5334C37.4422 97.7128 37.2883 97.8921 37.1086 97.8921Z" fill="black"/>
<path d="M73.704 99.686C72.7545 96.6365 71.7793 93.5613 70.8298 90.5118C70.1625 88.3592 68.8537 86.9498 66.7237 86.5397C65.5945 86.3347 64.4397 86.2835 63.2849 86.3603C60.4876 86.5397 58.7425 88.0517 57.8443 90.8706C55.7143 97.559 53.4816 104.222 51.3002 110.885C51.2489 111.064 51.1976 111.243 51.1206 111.448C52.994 111.448 54.0462 111.448 55.8426 111.448C56.3815 111.448 57.0744 111.602 57.4337 111.346C57.793 111.09 57.8443 110.372 57.9983 109.834C58.6655 107.733 59.3328 105.631 60 103.504H68.3404C69.1103 105.99 69.8546 108.476 70.6245 110.987C70.7014 111.218 70.7014 111.474 71.0607 111.448C73.3191 111.423 75.0385 111.448 77.3738 111.448C77.2968 111.167 77.2455 110.962 77.1685 110.756C76.0137 107.066 74.8588 103.376 73.704 99.686ZM66.1078 97.8921H62.3866C62.207 97.8921 62.053 97.7128 62.0787 97.5334C62.284 96.3289 63.0795 92.5619 64.2344 92.5619C65.3892 92.5619 66.1848 96.3546 66.3901 97.5334C66.4414 97.7128 66.2874 97.8921 66.1078 97.8921Z" fill="black"/>
<path d="M1.5911 121.366H4.08041L4.69632 122.775H5.56886H5.64585H9.41831V121.981H7.23695L9.59795 119.085H6.05646V119.88H7.95552L5.64585 122.698L2.92558 116.625L0 122.775H0.949529L1.5911 121.366ZM2.87425 118.573L3.74679 120.546H1.97605L2.87425 118.573Z" fill="black"/>
<path d="M13.6784 120.981C13.6784 119.879 12.8571 119.085 11.7536 119.085C11.1891 119.085 10.7271 119.29 10.3678 119.623L10.8041 120.059C11.0607 119.777 11.3944 119.649 11.7536 119.649C12.3182 119.649 12.8828 120.007 12.9855 120.674H9.88025C9.85458 120.776 9.85458 120.879 9.85458 121.007C9.85458 122.109 10.6758 122.903 11.7793 122.903C12.8572 122.878 13.6784 122.083 13.6784 120.981ZM11.7536 122.314C11.1377 122.314 10.5475 121.878 10.4962 121.186H13.0111C12.9598 121.878 12.3952 122.314 11.7536 122.314Z" fill="black"/>
<path d="M15.2438 120.879C15.2438 120.623 15.2438 120.289 15.4748 120.033C15.6287 119.854 15.834 119.828 16.0137 119.828C16.0907 119.828 16.2703 119.828 16.4499 119.956L16.8092 119.187C16.5783 119.059 16.3473 119.008 16.142 119.008C15.9624 119.008 15.7827 119.034 15.6287 119.136C15.5004 119.213 15.3721 119.316 15.2695 119.444V119.111H14.4226V122.775H15.2695V120.879H15.2438Z" fill="black"/>
<path d="M20.8127 120.93C20.8127 119.726 19.9914 119.008 19.0162 119.008C18.734 119.008 18.272 119.085 17.9384 119.521V116.42H17.0915V122.775H17.9384V122.391C18.3233 122.826 18.7853 122.878 19.0419 122.878C20.1711 122.878 20.8127 121.93 20.8127 120.93ZM17.8871 120.956C17.8871 120.161 18.3747 119.777 18.9136 119.777C19.5295 119.777 19.9401 120.289 19.9401 120.956C19.9401 121.596 19.5295 122.135 18.9136 122.135C18.4003 122.109 17.8871 121.725 17.8871 120.956Z" fill="black"/>
<path d="M24.2002 119.521C23.8409 119.059 23.379 119.008 23.1223 119.008C22.1471 119.008 21.3259 119.751 21.3259 120.93C21.3259 121.929 21.9675 122.878 23.0967 122.878C23.3533 122.878 23.8152 122.826 24.2002 122.391V122.775H25.0471V119.111H24.2002V119.521ZM23.225 122.109C22.6091 122.109 22.1985 121.571 22.1985 120.93C22.1985 120.289 22.6091 119.751 23.225 119.751C23.7639 119.751 24.2515 120.136 24.2515 120.93C24.2515 121.724 23.7639 122.109 23.225 122.109Z" fill="black"/>
<path d="M25.6629 124.774H26.6125L29.5381 119.111H28.5885L27.5107 121.238L26.4842 119.111H25.4576L27.0231 122.186L25.6629 124.774Z" fill="black"/>
<path d="M30.231 119.546C29.9487 119.828 29.6664 120.289 29.6664 120.956C29.6664 121.622 29.923 122.058 30.1796 122.339C30.5389 122.698 30.9752 122.878 31.5654 122.878C32.13 122.878 32.4636 122.724 32.6946 122.596V121.648C32.3867 121.981 31.976 122.109 31.6424 122.109C31.3345 122.109 31.0522 122.006 30.8725 121.801C30.7186 121.648 30.5389 121.34 30.5389 120.93C30.5389 120.52 30.6929 120.238 30.8469 120.084C31.0009 119.931 31.2575 119.751 31.6681 119.751C31.9247 119.751 32.3097 119.828 32.6946 120.212V119.264C32.3097 119.059 31.976 119.008 31.6938 119.008C30.9752 119.008 30.5133 119.264 30.231 119.546Z" fill="black"/>
<path d="M36.0051 122.391V122.775H36.852V119.111H36.0051V119.546C35.6459 119.085 35.1839 119.034 34.9273 119.034C33.9521 119.034 33.1309 119.777 33.1309 120.956C33.1309 121.955 33.7725 122.903 34.9016 122.903C35.1583 122.878 35.6202 122.826 36.0051 122.391ZM35.0299 122.109C34.414 122.109 34.0034 121.571 34.0034 120.93C34.0034 120.289 34.414 119.751 35.0299 119.751C35.5689 119.751 36.0565 120.136 36.0565 120.93C36.0565 121.724 35.5689 122.109 35.0299 122.109Z" fill="black"/>
<path d="M39.5723 119.008C39.367 119.008 38.9564 119.034 38.5714 119.444V119.111H37.7245V122.775H38.5714V121.007C38.5714 119.828 38.9564 119.777 39.3413 119.777C39.6749 119.777 40.0086 119.802 40.0086 120.725V122.775H40.8554V120.52C40.8554 119.956 40.7784 119.7 40.6245 119.495C40.5475 119.341 40.2652 119.008 39.5723 119.008Z" fill="black"/>
<path d="M78.7083 120.11H80.6587V119.264H78.7083V117.804H80.7357V116.958H77.8101V122.775H78.7083V120.11Z" fill="black"/>
<path d="M83.071 119.008C82.5577 119.008 82.1471 119.187 81.8392 119.495C81.4542 119.879 81.2489 120.443 81.2489 121.007C81.2489 121.545 81.4286 122.058 81.7879 122.416C82.1471 122.775 82.5321 122.878 83.0197 122.878C83.4046 122.878 83.8152 122.801 84.0975 122.596C84.3285 122.442 84.5595 122.211 84.7134 121.929L83.9949 121.519C83.9179 121.648 83.8152 121.801 83.6612 121.929C83.4816 122.058 83.302 122.109 83.071 122.109C82.8657 122.109 82.6091 122.083 82.4294 121.878C82.2498 121.699 82.1215 121.391 82.1215 121.135H84.7648V121.033C84.7648 120.648 84.7134 119.982 84.2515 119.469C84.0462 119.264 83.6613 119.008 83.071 119.008ZM82.1985 120.443C82.2498 120.264 82.3268 120.084 82.4551 119.982C82.5577 119.879 82.763 119.751 83.0453 119.751C83.3276 119.751 83.5073 119.854 83.6099 119.956C83.7382 120.084 83.8409 120.264 83.8665 120.443H82.1985Z" fill="black"/>
<path d="M88.3832 122.391V122.775H89.2301V116.42H88.3832V119.521C88.0239 119.059 87.562 119.008 87.3054 119.008C86.3302 119.008 85.509 119.751 85.509 120.93C85.509 121.93 86.1505 122.878 87.2797 122.878C87.562 122.878 88.0239 122.826 88.3832 122.391ZM86.3815 120.956C86.3815 120.315 86.7921 119.777 87.408 119.777C87.947 119.777 88.4345 120.161 88.4345 120.956C88.4345 121.725 87.947 122.109 87.408 122.109C86.7921 122.109 86.3815 121.596 86.3815 120.956Z" fill="black"/>
<path d="M92.0017 119.008C91.4884 119.008 91.0778 119.187 90.7699 119.495C90.3849 119.879 90.1796 120.443 90.1796 121.007C90.1796 121.545 90.3593 122.058 90.7186 122.416C91.0778 122.775 91.4628 122.878 91.9504 122.878C92.3353 122.878 92.7459 122.801 93.0282 122.596C93.2592 122.442 93.4901 122.211 93.6441 121.929L92.9256 121.519C92.8486 121.648 92.7459 121.801 92.5919 121.929C92.4123 122.058 92.2327 122.109 92.0017 122.109C91.7964 122.109 91.5398 122.083 91.3601 121.878C91.1805 121.699 91.0522 121.391 91.0522 121.135H93.6955V121.033C93.6955 120.648 93.6441 119.982 93.1822 119.469C92.9512 119.264 92.5919 119.008 92.0017 119.008ZM91.1292 120.443C91.1805 120.264 91.2575 120.084 91.3858 119.982C91.4884 119.879 91.6937 119.751 91.976 119.751C92.2583 119.751 92.438 119.854 92.5406 119.956C92.6689 120.084 92.7716 120.264 92.7973 120.443H91.1292Z" fill="black"/>
<path d="M95.4919 120.879C95.4919 120.623 95.4919 120.289 95.7228 120.033C95.8768 119.854 96.0821 119.828 96.2618 119.828C96.3387 119.828 96.5184 119.828 96.698 119.956L97.0573 119.187C96.8263 119.059 96.5954 119.008 96.3901 119.008C96.2104 119.008 96.0308 119.034 95.8768 119.136C95.7485 119.213 95.6202 119.316 95.5175 119.444V119.111H94.6707V122.775H95.5175V120.879H95.4919Z" fill="black"/>
<path d="M100.06 122.391V122.775H100.907V119.111H100.06V119.546C99.7006 119.085 99.2387 119.034 98.982 119.034C98.0069 119.034 97.1856 119.777 97.1856 120.956C97.1856 121.955 97.8272 122.903 98.9564 122.903C99.2387 122.878 99.7006 122.826 100.06 122.391ZM98.0582 120.956C98.0582 120.315 98.4688 119.777 99.0847 119.777C99.6236 119.777 100.111 120.161 100.111 120.956C100.111 121.724 99.6236 122.109 99.0847 122.109C98.4688 122.109 98.0582 121.596 98.0582 120.956Z" fill="black"/>
<path d="M103.088 122.134C102.883 122.134 102.754 122.058 102.703 122.006C102.626 121.929 102.549 121.776 102.498 121.648L101.805 121.981C101.882 122.237 102.062 122.493 102.267 122.647C102.524 122.852 102.831 122.878 103.062 122.878C103.447 122.878 103.807 122.775 104.089 122.468C104.294 122.263 104.423 121.955 104.423 121.622C104.423 121.366 104.346 121.135 104.14 120.93C104.012 120.776 103.807 120.674 103.627 120.597L103.191 120.392C103.011 120.289 102.96 120.289 102.908 120.238C102.831 120.187 102.78 120.136 102.78 120.033C102.78 119.956 102.806 119.879 102.857 119.854C102.908 119.802 102.985 119.751 103.114 119.751C103.396 119.751 103.55 119.931 103.627 120.059L104.269 119.649C104.14 119.418 103.961 119.264 103.858 119.187C103.653 119.059 103.447 119.008 103.165 119.008C102.703 119.008 102.421 119.187 102.267 119.367C102.087 119.572 101.959 119.854 101.959 120.161C101.959 120.392 102.036 120.597 102.216 120.776C102.344 120.904 102.549 121.007 102.729 121.084L103.037 121.238C103.165 121.289 103.293 121.366 103.396 121.468C103.473 121.545 103.499 121.648 103.499 121.75C103.499 121.853 103.447 121.981 103.37 122.032C103.345 122.083 103.216 122.134 103.088 122.134Z" fill="black"/>
<path d="M105.654 118.137C105.962 118.137 106.193 117.906 106.193 117.599C106.193 117.291 105.962 117.061 105.654 117.061C105.346 117.061 105.115 117.291 105.115 117.599C105.115 117.906 105.346 118.137 105.654 118.137Z" fill="black"/>
<path d="M106.091 119.111H105.244V122.775H106.091V119.111Z" fill="black"/>
<path d="M109.863 119.111L108.811 121.238L107.759 119.111H106.732L108.298 122.186L106.938 124.774H107.913L110.838 119.111H109.863Z" fill="black"/>
<path d="M113.969 122.391V122.775H114.816V119.111H113.969V119.546C113.61 119.085 113.148 119.034 112.891 119.034C111.916 119.034 111.095 119.777 111.095 120.956C111.095 121.955 111.737 122.903 112.866 122.903C113.122 122.878 113.584 122.826 113.969 122.391ZM111.968 120.956C111.968 120.315 112.378 119.777 112.994 119.777C113.533 119.777 114.021 120.161 114.021 120.956C114.021 121.724 113.533 122.109 112.994 122.109C112.352 122.109 111.968 121.596 111.968 120.956Z" fill="black"/>
<path d="M117.998 122.468C118.204 122.263 118.332 121.955 118.332 121.622C118.332 121.366 118.255 121.135 118.05 120.93C117.921 120.776 117.716 120.674 117.536 120.597L117.1 120.392C116.92 120.289 116.869 120.289 116.818 120.238C116.741 120.187 116.689 120.136 116.689 120.033C116.689 119.956 116.715 119.879 116.766 119.854C116.818 119.802 116.895 119.751 117.023 119.751C117.305 119.751 117.459 119.931 117.536 120.059L118.178 119.649C118.05 119.418 117.87 119.264 117.767 119.187C117.562 119.059 117.357 119.008 117.074 119.008C116.612 119.008 116.33 119.187 116.176 119.367C115.997 119.572 115.868 119.854 115.868 120.161C115.868 120.392 115.945 120.597 116.125 120.776C116.253 120.904 116.459 121.007 116.638 121.084L116.946 121.238C117.074 121.289 117.203 121.366 117.305 121.468C117.382 121.545 117.408 121.648 117.408 121.75C117.408 121.853 117.357 121.981 117.28 122.032C117.203 122.109 117.049 122.16 116.92 122.16C116.715 122.16 116.587 122.083 116.536 122.032C116.459 121.955 116.382 121.801 116.33 121.673L115.637 122.006C115.714 122.263 115.894 122.519 116.099 122.673C116.356 122.878 116.664 122.903 116.895 122.903C117.357 122.878 117.716 122.775 117.998 122.468Z" fill="black"/>
<path d="M119.974 119.111H119.127V122.775H119.974V119.111Z" fill="black"/>
<path d="M46.8862 116.625L43.9863 122.775H44.9359L45.5774 121.366H48.0667L48.6827 122.775H49.6322L46.8862 116.625ZM45.9624 120.52L46.8606 118.547L47.7331 120.52H45.9624Z" fill="black"/>
<path d="M51.018 116.42H50.1711V122.775H51.018V116.42Z" fill="black"/>
<path d="M54.0462 122.878C54.9188 122.878 55.817 122.134 55.817 120.904C55.817 119.726 54.9957 119.008 54.0205 119.008C53.6613 119.008 53.2507 119.136 52.9427 119.495V119.085H52.0958V124.748H52.9427V122.314C53.3276 122.801 53.8409 122.878 54.0462 122.878ZM52.8914 120.956C52.8914 120.161 53.379 119.777 53.9179 119.777C54.5338 119.777 54.9444 120.289 54.9444 120.956C54.9444 121.596 54.5338 122.134 53.9179 122.134C53.379 122.109 52.8914 121.724 52.8914 120.956Z" fill="black"/>
<path d="M57.1001 118.137C57.408 118.137 57.639 117.906 57.639 117.599C57.639 117.291 57.408 117.061 57.1001 117.061C56.7921 117.061 56.5612 117.291 56.5612 117.599C56.5612 117.906 56.7921 118.137 57.1001 118.137Z" fill="black"/>
<path d="M57.5107 119.111H56.6638V122.775H57.5107V119.111Z" fill="black"/>
<path d="M61.7194 122.775V120.52C61.7194 119.956 61.6424 119.7 61.4884 119.495C61.3858 119.341 61.0778 119.008 60.4106 119.008C60.2053 119.008 59.7947 119.034 59.4097 119.444V119.111H58.5629V122.775H59.4097V121.007C59.4097 119.828 59.7947 119.777 60.1796 119.777C60.5133 119.777 60.8469 119.802 60.8469 120.725V122.775H61.7194Z" fill="black"/>
<path d="M63.2079 118.137C63.5158 118.137 63.7468 117.906 63.7468 117.599C63.7468 117.291 63.5158 117.061 63.2079 117.061C62.8999 117.061 62.6689 117.291 62.6689 117.599C62.6433 117.906 62.8742 118.137 63.2079 118.137Z" fill="black"/>
<path d="M63.6185 119.111H62.7716V122.775H63.6185V119.111Z" fill="black"/>
<path d="M64.722 119.111V119.879H66.5954L64.2087 122.775H68.0582V121.981H65.8768L68.2635 119.111H64.722Z" fill="black"/>
<path d="M72.9341 120.084C72.9598 120.161 73.0111 120.341 73.0111 120.725V122.749H73.858V120.494C73.858 119.956 73.7297 119.7 73.6783 119.572C73.473 119.213 73.0881 119.008 72.6262 119.008C72.2925 119.008 71.8306 119.111 71.5483 119.546C71.343 119.187 70.9837 119.008 70.5988 119.008C70.3165 119.008 69.9829 119.085 69.7006 119.444V119.111H68.8537V122.775H69.7006V120.879C69.7006 120.571 69.7262 120.264 69.8546 120.033C69.9572 119.879 70.1625 119.751 70.3678 119.751C70.6758 119.751 70.8041 119.931 70.8554 120.084C70.8811 120.161 70.9324 120.341 70.9324 120.725V122.749H71.7793V120.853C71.7793 120.546 71.8049 120.238 71.9333 120.007C72.0359 119.854 72.2412 119.726 72.4465 119.726C72.7545 119.777 72.8828 119.956 72.9341 120.084Z" fill="black"/>
<path d="M5.3379 127.977V128.669H6.98033L4.95295 131.129L2.5663 125.799L0 131.232H0.846878L1.41146 130.002H3.59281L4.13174 131.232H4.87596H4.97861H8.28914V130.54H6.36441L8.44312 128.003H5.3379V127.977ZM1.71942 129.259L2.51497 127.516L3.28486 129.259H1.71942Z" fill="black"/>
<path d="M10.1625 127.9C9.70061 127.9 9.34133 128.08 9.0847 128.336C8.75108 128.695 8.57144 129.156 8.57144 129.669C8.57144 130.155 8.75108 130.591 9.05904 130.899C9.36699 131.206 9.72627 131.309 10.1625 131.309C10.4962 131.309 10.8554 131.232 11.1121 131.052C11.3174 130.924 11.5227 130.719 11.651 130.463L11.0094 130.104C10.9324 130.232 10.8298 130.361 10.7015 130.463C10.5475 130.591 10.3935 130.617 10.1882 130.617C10.0086 130.617 9.7776 130.591 9.62362 130.412C9.46964 130.258 9.36699 129.976 9.34133 129.771H11.6767V129.669C11.6767 129.335 11.651 128.72 11.2147 128.31C11.0094 128.131 10.6758 127.9 10.1625 127.9ZM9.39266 129.182C9.44398 129.028 9.52097 128.874 9.62362 128.772C9.72627 128.669 9.90591 128.567 10.1625 128.567C10.4192 128.567 10.5732 128.669 10.6758 128.746C10.7785 128.849 10.8811 129.002 10.9068 129.182H9.39266Z" fill="black"/>
<path d="M13.3191 128.003C13.2164 128.054 13.0881 128.182 13.0111 128.259V127.977H12.2669V131.206H13.0111V129.54C13.0111 129.335 13.0111 129.028 13.2164 128.797C13.3704 128.644 13.5244 128.618 13.6784 128.618C13.7554 128.618 13.8837 128.618 14.0633 128.746L14.3713 128.054C14.166 127.926 13.9607 127.9 13.781 127.9C13.6014 127.9 13.4731 127.926 13.3191 128.003Z" fill="black"/>
<path d="M16.3217 127.9C16.0907 127.9 15.6801 127.952 15.3465 128.362V125.62H14.6022V131.232H15.3465V130.899C15.6801 131.283 16.0907 131.334 16.3217 131.334C17.3225 131.334 17.8871 130.514 17.8871 129.617C17.9128 128.541 17.1942 127.9 16.3217 127.9ZM16.2447 130.642C15.7571 130.642 15.3208 130.309 15.3208 129.617C15.3208 128.9 15.7571 128.567 16.2447 128.567C16.7836 128.567 17.1429 129.028 17.1429 129.592C17.1429 130.181 16.7836 130.642 16.2447 130.642Z" fill="black"/>
<path d="M20.864 128.362C20.556 127.952 20.1454 127.9 19.8888 127.9C19.0419 127.9 18.3234 128.541 18.3234 129.592C18.3234 130.489 18.8879 131.309 19.8888 131.309C20.1198 131.309 20.5304 131.257 20.864 130.873V131.206H21.6082V127.977H20.864V128.362ZM19.9915 130.642C19.4525 130.642 19.0933 130.181 19.0933 129.617C19.0933 129.054 19.4525 128.592 19.9915 128.592C20.4791 128.592 20.9153 128.925 20.9153 129.643C20.9153 130.309 20.4791 130.642 19.9915 130.642Z" fill="black"/>
<path d="M23.1223 127.977H22.3781V131.206H23.1223V127.977Z" fill="black"/>
<path d="M22.763 126.158C22.4808 126.158 22.2755 126.363 22.2755 126.645C22.2755 126.927 22.4808 127.132 22.763 127.132C23.0453 127.132 23.2506 126.927 23.2506 126.645C23.2506 126.363 23.0453 126.158 22.763 126.158Z" fill="black"/>
<path d="M24.6364 127.977H23.8922V132.974H24.6364V127.977Z" fill="black"/>
<path d="M24.2771 126.158C23.9949 126.158 23.7896 126.363 23.7896 126.645C23.7896 126.927 23.9949 127.132 24.2771 127.132C24.5594 127.132 24.7647 126.927 24.7647 126.645C24.7647 126.363 24.5594 126.158 24.2771 126.158Z" fill="black"/>
<path d="M27.793 128.362C27.485 127.952 27.0744 127.9 26.8178 127.9C25.9709 127.9 25.2523 128.541 25.2523 129.592C25.2523 130.489 25.8169 131.309 26.8178 131.309C27.0488 131.309 27.4594 131.257 27.793 130.873V131.206H28.5372V127.977H27.793V128.362ZM26.9204 130.642C26.3815 130.642 26.0222 130.181 26.0222 129.617C26.0222 129.054 26.3815 128.592 26.9204 128.592C27.408 128.592 27.8443 128.925 27.8443 129.643C27.8443 130.309 27.408 130.642 26.9204 130.642Z" fill="black"/>
<path d="M30.9239 127.9C30.7442 127.9 30.3593 127.926 30.0513 128.285V127.977H29.3071V131.206H30.0513V129.669C30.0513 128.618 30.3849 128.567 30.7442 128.567C31.0265 128.567 31.3345 128.592 31.3345 129.412V131.206H32.0787V129.233C32.0787 128.72 32.0017 128.515 31.8734 128.336C31.7964 128.208 31.5398 127.9 30.9239 127.9Z" fill="black"/>
<path d="M86.9718 131.232H87.7673V128.874H89.4867V128.131H87.7673V126.824H89.5381V126.107H86.9718V131.232Z" fill="black"/>
<path d="M91.6681 127.9C91.2062 127.9 90.8469 128.08 90.5903 128.336C90.2566 128.695 90.077 129.156 90.077 129.669C90.077 130.155 90.2566 130.591 90.5646 130.899C90.8725 131.206 91.2318 131.309 91.6681 131.309C92.0017 131.309 92.361 131.232 92.6176 131.052C92.8229 130.924 93.0282 130.719 93.1566 130.463L92.515 130.104C92.438 130.232 92.3353 130.361 92.207 130.463C92.053 130.591 91.8991 130.617 91.6938 130.617C91.5141 130.617 91.2832 130.591 91.1292 130.412C90.9752 130.258 90.8725 129.976 90.8469 129.771H93.1822V129.669C93.1822 129.335 93.1309 128.72 92.7203 128.31C92.515 128.131 92.207 127.9 91.6681 127.9ZM90.8982 129.182C90.9495 129.028 91.0265 128.874 91.1292 128.772C91.2318 128.669 91.4115 128.567 91.6681 128.567C91.9247 128.567 92.0787 128.669 92.1814 128.746C92.284 128.849 92.3867 129.002 92.4123 129.182H90.8982Z" fill="black"/>
<path d="M96.4414 128.362C96.1334 127.952 95.7228 127.9 95.4662 127.9C94.6193 127.9 93.9008 128.541 93.9008 129.592C93.9008 130.489 94.4653 131.309 95.4662 131.309C95.6972 131.309 96.1078 131.257 96.4414 130.873V131.206H97.1856V125.594H96.4414V128.362ZM95.5688 130.642C95.0299 130.642 94.6706 130.181 94.6706 129.617C94.6706 129.054 95.0299 128.592 95.5688 128.592C96.0564 128.592 96.4927 128.925 96.4927 129.643C96.4671 130.309 96.0308 130.642 95.5688 130.642Z" fill="black"/>
<path d="M99.6749 127.9C99.213 127.9 98.8537 128.08 98.5971 128.336C98.2635 128.695 98.0838 129.156 98.0838 129.669C98.0838 130.155 98.2635 130.591 98.5714 130.899C98.8794 131.206 99.2387 131.309 99.6749 131.309C100.034 131.309 100.368 131.232 100.624 131.052C100.83 130.924 101.035 130.719 101.163 130.463L100.522 130.104C100.445 130.232 100.342 130.361 100.214 130.463C100.06 130.591 99.9059 130.617 99.7006 130.617C99.521 130.617 99.29 130.591 99.136 130.412C98.982 130.258 98.8794 129.976 98.8537 129.771H101.189V129.669C101.189 129.335 101.138 128.72 100.727 128.31C100.522 128.131 100.188 127.9 99.6749 127.9ZM98.905 129.182C98.9307 129.028 99.0334 128.874 99.136 128.772C99.2387 128.669 99.3926 128.567 99.6749 128.567C99.9316 128.567 100.086 128.669 100.188 128.746C100.317 128.849 100.393 129.002 100.419 129.182H98.905Z" fill="black"/>
<path d="M103.114 128.003C103.011 128.054 102.883 128.182 102.806 128.259V127.977H102.062V131.206H102.806V129.54C102.806 129.335 102.806 129.028 103.011 128.797C103.165 128.644 103.319 128.618 103.473 128.618C103.55 128.618 103.678 128.618 103.858 128.746L104.166 128.054C103.961 127.926 103.755 127.9 103.576 127.9C103.422 127.9 103.268 127.926 103.114 128.003Z" fill="black"/>
<path d="M106.912 128.362C106.604 127.952 106.193 127.9 105.937 127.9C105.09 127.9 104.371 128.541 104.371 129.592C104.371 130.489 104.936 131.309 105.937 131.309C106.168 131.309 106.578 131.257 106.912 130.873V131.206H107.656V127.977H106.912V128.362ZM106.039 130.642C105.5 130.642 105.141 130.181 105.141 129.617C105.141 129.054 105.5 128.592 106.039 128.592C106.527 128.592 106.963 128.925 106.963 129.643C106.963 130.309 106.527 130.642 106.039 130.642Z" fill="black"/>
<path d="M109.504 126.799H108.76V127.977H108.426V128.669H108.76V131.232H109.504V128.669H110.068V127.977H109.504V126.799Z" fill="black"/>
<path d="M111.429 127.977H110.684V131.206H111.429V127.977Z" fill="black"/>
<path d="M111.069 126.158C110.787 126.158 110.582 126.363 110.582 126.645C110.582 126.927 110.787 127.132 111.069 127.132C111.352 127.132 111.557 126.927 111.557 126.645C111.557 126.363 111.352 126.158 111.069 126.158Z" fill="black"/>
<path d="M114.072 127.9C113.097 127.9 112.352 128.618 112.352 129.617C112.352 130.617 113.097 131.334 114.072 131.334C115.047 131.334 115.817 130.617 115.817 129.617C115.791 128.618 115.047 127.9 114.072 127.9ZM114.072 130.642C113.482 130.642 113.122 130.232 113.122 129.617C113.122 128.874 113.61 128.592 114.072 128.592C114.559 128.592 115.047 128.9 115.047 129.617C115.021 130.232 114.662 130.642 114.072 130.642Z" fill="black"/>
<path d="M118.306 127.9C118.127 127.9 117.742 127.926 117.434 128.285V127.977H116.689V131.206H117.434V129.669C117.434 128.618 117.793 128.567 118.127 128.567C118.409 128.567 118.717 128.592 118.717 129.412V131.206H119.461V129.233C119.461 128.72 119.384 128.515 119.256 128.336C119.153 128.208 118.896 127.9 118.306 127.9Z" fill="black"/>
<path d="M37.7759 129.694L36.0051 125.722L34.9273 131.232H35.7228L36.2617 128.131L37.7245 131.462L39.2387 128.131L39.7519 131.232H40.5475L39.5723 125.722L37.7759 129.694Z" fill="black"/>
<path d="M43.1138 127.9C42.1386 127.9 41.3943 128.618 41.3943 129.617C41.3943 130.617 42.1386 131.334 43.1138 131.334C44.089 131.334 44.8332 130.617 44.8332 129.617C44.8588 128.618 44.1146 127.9 43.1138 127.9ZM43.1138 130.642C42.5235 130.642 42.1386 130.232 42.1386 129.617C42.1386 128.874 42.6262 128.592 43.1138 128.592C43.6014 128.592 44.089 128.9 44.089 129.617C44.089 130.232 43.7297 130.642 43.1138 130.642Z" fill="black"/>
<path d="M47.7331 129.848C47.7331 130.053 47.7331 130.258 47.6048 130.437C47.5021 130.566 47.3225 130.668 47.1172 130.668C46.9119 130.668 46.7322 130.566 46.6296 130.437C46.5013 130.258 46.5013 130.053 46.5013 129.848V128.003H45.757V129.874C45.757 130.284 45.8084 130.642 46.1163 130.924C46.3986 131.232 46.8092 131.334 47.1428 131.334C47.5021 131.334 47.9127 131.232 48.195 130.924C48.503 130.617 48.5543 130.284 48.5543 129.874V128.003H47.7331V129.848Z" fill="black"/>
<path d="M51.1206 127.9C50.941 127.9 50.556 127.926 50.2481 128.285V127.977H49.5038V131.206H50.2481V129.669C50.2481 128.618 50.5817 128.567 50.941 128.567C51.2233 128.567 51.5312 128.592 51.5312 129.412V131.206H52.2754V129.233C52.2754 128.72 52.1985 128.515 52.0701 128.336C51.9932 128.208 51.7365 127.9 51.1206 127.9Z" fill="black"/>
<path d="M54.0975 126.799H53.3276V127.977H53.0197V128.669H53.3276V131.232H54.0975V128.669H54.6621V127.977H54.0975V126.799Z" fill="black"/>
<path d="M57.6134 128.362C57.3054 127.952 56.8948 127.9 56.6382 127.9C55.7913 127.9 55.0727 128.541 55.0727 129.592C55.0727 130.489 55.6373 131.309 56.6382 131.309C56.8691 131.309 57.2797 131.257 57.6134 130.873V131.206H58.3576V127.977H57.6134V128.362ZM56.7408 130.642C56.2019 130.642 55.8426 130.181 55.8426 129.617C55.8426 129.054 56.2019 128.592 56.7408 128.592C57.2284 128.592 57.6647 128.925 57.6647 129.643C57.6647 130.309 57.2284 130.642 56.7408 130.642Z" fill="black"/>
<path d="M60.1283 127.977H59.3841V131.206H60.1283V127.977Z" fill="black"/>
<path d="M59.769 126.158C59.4867 126.158 59.2814 126.363 59.2814 126.645C59.2814 126.927 59.4867 127.132 59.769 127.132C60.0513 127.132 60.2566 126.927 60.2566 126.645C60.2566 126.363 60.0513 126.158 59.769 126.158Z" fill="black"/>
<path d="M62.7972 127.9C62.6176 127.9 62.2327 127.926 61.9247 128.285V127.977H61.1805V131.206H61.9247V129.669C61.9247 128.618 62.2583 128.567 62.6176 128.567C62.8999 128.567 63.2079 128.592 63.2079 129.412V131.206H63.9521V129.233C63.9521 128.72 63.8751 128.515 63.7468 128.336C63.6441 128.208 63.3875 127.9 62.7972 127.9Z" fill="black"/>
<path d="M66.4157 127.9C65.9538 127.9 65.5945 128.08 65.3379 128.336C65.0043 128.695 64.8246 129.156 64.8246 129.669C64.8246 130.155 65.0043 130.591 65.3122 130.899C65.6202 131.206 65.9795 131.309 66.4157 131.309C66.7494 131.309 67.1086 131.232 67.3653 131.052C67.5706 130.924 67.7759 130.719 67.9042 130.463L67.2626 130.104C67.1856 130.232 67.083 130.361 66.9547 130.463C66.8007 130.591 66.6467 130.617 66.4414 130.617C66.2618 130.617 66.0308 130.591 65.8768 130.412C65.7229 130.258 65.6202 129.976 65.5945 129.771H67.9299V129.669C67.9299 129.335 67.9042 128.72 67.4679 128.31C67.2626 128.131 66.929 127.9 66.4157 127.9ZM65.6202 129.182C65.6715 129.028 65.7485 128.874 65.8512 128.772C65.9538 128.669 66.1335 128.567 66.3901 128.567C66.6467 128.567 66.8007 128.669 66.9033 128.746C67.006 128.849 67.1086 129.002 67.1343 129.182H65.6202Z" fill="black"/>
<path d="M70.1882 127.9C69.7263 127.9 69.367 128.08 69.1104 128.336C68.7767 128.695 68.5971 129.156 68.5971 129.669C68.5971 130.155 68.7768 130.591 69.0847 130.899C69.3927 131.206 69.7519 131.309 70.1882 131.309C70.5475 131.309 70.8811 131.232 71.1377 131.052C71.3431 130.924 71.5483 130.719 71.6767 130.463L71.0351 130.104C70.9581 130.232 70.8555 130.361 70.7271 130.463C70.5732 130.591 70.4192 130.617 70.2139 130.617C70.0342 130.617 69.8033 130.591 69.6493 130.412C69.4953 130.258 69.3927 129.976 69.367 129.771H71.7023V129.669C71.7023 129.335 71.651 128.72 71.2404 128.31C71.0351 128.131 70.7015 127.9 70.1882 127.9ZM69.4183 129.182C69.444 129.028 69.5466 128.874 69.6493 128.772C69.7519 128.669 69.9059 128.567 70.1882 128.567C70.4448 128.567 70.5988 128.669 70.7015 128.746C70.8298 128.849 70.9068 129.002 70.9324 129.182H69.4183Z" fill="black"/>
<path d="M73.6014 128.003C73.4987 128.054 73.3704 128.182 73.2934 128.259V127.977H72.5492V131.206H73.2934V129.54C73.2934 129.335 73.2934 129.028 73.4987 128.797C73.6527 128.644 73.8067 128.618 73.9607 128.618C74.0376 128.618 74.166 128.618 74.3456 128.746L74.6536 128.054C74.4482 127.926 74.2429 127.9 74.0633 127.9C73.9093 127.9 73.7553 127.926 73.6014 128.003Z" fill="black"/>
<path d="M75.911 127.977H75.1668V131.206H75.911V127.977Z" fill="black"/>
<path d="M75.5261 126.158C75.2438 126.158 75.0385 126.363 75.0385 126.645C75.0385 126.927 75.2438 127.132 75.5261 127.132C75.8084 127.132 76.0137 126.927 76.0137 126.645C76.0137 126.363 75.8084 126.158 75.5261 126.158Z" fill="black"/>
<path d="M78.5543 127.9C78.3747 127.9 77.9897 127.926 77.6818 128.285V127.977H76.9376V131.206H77.6818V129.669C77.6818 128.618 78.0411 128.567 78.3747 128.567C78.657 128.567 78.9649 128.592 78.9649 129.412V131.206H79.7092V129.233C79.7092 128.72 79.6322 128.515 79.5039 128.336C79.4269 128.208 79.1702 127.9 78.5543 127.9Z" fill="black"/>
<path d="M83.1223 128.336C82.84 128.003 82.4808 127.9 82.1471 127.9C81.7622 127.9 81.3772 128.029 81.0436 128.336C80.787 128.592 80.556 129.002 80.556 129.592C80.556 130.13 80.7613 130.566 81.0436 130.873C81.3516 131.206 81.6852 131.309 82.1215 131.309C82.3268 131.309 82.763 131.283 83.0967 130.847V131.283C83.0967 131.514 83.0967 131.847 82.84 132.103C82.7374 132.206 82.5577 132.308 82.2498 132.308C81.9418 132.308 81.7622 132.18 81.6595 132.077C81.5312 131.949 81.4542 131.744 81.4286 131.565H80.6843C80.7357 131.949 80.9153 132.334 81.1719 132.564C81.4799 132.872 81.8648 132.974 82.2241 132.974C82.763 132.974 83.0967 132.795 83.302 132.641C83.7382 132.257 83.8409 131.719 83.8409 130.95V127.977H83.0967V128.336H83.1223ZM82.8657 130.386C82.6861 130.591 82.4808 130.642 82.2241 130.642C81.9932 130.642 81.7879 130.54 81.6595 130.437C81.4542 130.258 81.3259 129.95 81.3259 129.617C81.3259 129.259 81.4542 128.977 81.6595 128.797C81.8392 128.644 82.0188 128.592 82.2241 128.592C82.4294 128.592 82.6347 128.644 82.84 128.823C83.0453 129.002 83.148 129.284 83.148 129.643C83.148 129.874 83.0967 130.155 82.8657 130.386Z" fill="black"/>
</g>
<defs>
<clipPath id="clip0_2_404">
<rect width="120" height="133" fill="white"/>
</clipPath>
</defs>
</svg>
