<svg width="28" height="28" viewBox="0 0 28 28" fill="none" xmlns="http://www.w3.org/2000/svg">
<path d="M27.7031 26.2441L21.2075 19.7485H21.1375C23.1396 17.3878 24.1514 14.3444 23.9612 11.2549C23.7709 8.16539 22.3934 5.26912 20.1168 3.17192C17.8402 1.07473 14.8408 -0.0609267 11.7461 0.00252242C8.6514 0.0659715 5.7011 1.32361 3.51235 3.51235C1.32361 5.7011 0.0659715 8.6514 0.00252242 11.7461C-0.0609267 14.8408 1.07473 17.8402 3.17192 20.1168C5.26912 22.3934 8.16539 23.7709 11.2549 23.9612C14.3444 24.1514 17.3878 23.1396 19.7485 21.1375C19.7485 21.1375 19.7485 21.1875 19.7485 21.2075L26.2441 27.7031C26.337 27.7968 26.4475 27.8711 26.5693 27.9218C26.6911 27.9726 26.8217 27.9987 26.9536 27.9987C27.0855 27.9987 27.2161 27.9726 27.3379 27.9218C27.4597 27.8711 27.5702 27.7968 27.6631 27.7031C27.7656 27.6124 27.8483 27.5016 27.9062 27.3776C27.9641 27.2536 27.9959 27.119 27.9996 26.9823C28.0034 26.8455 27.979 26.7094 27.928 26.5824C27.877 26.4554 27.8004 26.3403 27.7031 26.2441ZM12.0037 21.957C10.0272 21.957 8.09511 21.3709 6.45172 20.2728C4.80834 19.1747 3.52748 17.614 2.77111 15.788C2.01474 13.9619 1.81684 11.9526 2.20244 10.0141C2.58803 8.07562 3.53979 6.29499 4.93738 4.8974C6.33496 3.49982 8.11559 2.54806 10.0541 2.16246C11.9926 1.77687 14.0019 1.97477 15.8279 2.73114C17.654 3.4875 19.2147 4.76836 20.3128 6.41175C21.4108 8.05513 21.9969 9.98723 21.9969 11.9637C21.9969 13.276 21.7385 14.5755 21.2363 15.788C20.734 17.0004 19.9979 18.1021 19.07 19.03C18.142 19.958 17.0404 20.6941 15.8279 21.1963C14.6155 21.6985 13.316 21.957 12.0037 21.957Z" fill="black"/>
</svg>
